<?xml version="1.0" encoding="UTF-8"?>
<svg id="Layer_2" data-name="Layer 2" xmlns="http://www.w3.org/2000/svg" viewBox="0 0 387.07 203.86">
  <defs>
    <style>
      .cls-1 {
        fill: #fd0;
      }

      .cls-1, .cls-2 {
        stroke-width: 0px;
      }

      .cls-2 {
        fill: #003e7e;
      }
    </style>
  </defs>
  <g id="Layer_4" data-name="Layer 4">
    <g>
      <path class="cls-1" d="m155.4,24.2c6.61,1.14,10.19,3.72,15.35,11.67,5.76,8.88,13.82,21.34,14.24,21.99.65.99,1.02,1.09,1.5,1.09s.84-.09,1.47-1.09c.43-.65,8.53-13.11,14.27-22,5.15-7.99,8.76-10.53,15.33-11.66,1.95-.34,3.34-1.18,3.34-3.01,0-3.65-7.14-9.85-15.81-9.85-1.97,0-2.97-.97-3.54-2.27-2.35-5.34-7.87-9.07-15.06-9.07s-12.71,3.73-15.08,9.07c-.57,1.3-1.56,2.27-3.54,2.27-8.63,0-15.81,6.17-15.81,9.85,0,1.83,1.38,2.67,3.33,3.01"/>
      <g>
        <path class="cls-2" d="m127.14,37.87c7.96,0,12.92,4.71,16.8,10.97,1,1.61,3.02,4.85,5.47,8.78h24.77c-3.64-5.66-7.81-12.17-9.69-15.09-7.14-11.04-16-14.64-24.38-14.64-11.14,0-15.17,5.8-15.17,8.17,0,.98.53,1.81,2.2,1.81Z"/>
        <path class="cls-2" d="m106.6,54.28c3,0,4.94.87,7.13,3.34h25.03c-6.69-10.56-14.42-13.13-21.05-13.13-8.82,0-13.66,4.56-13.66,7.56,0,1.07.47,2.23,2.55,2.23Z"/>
        <path class="cls-2" d="m229.03,48.84c3.87-6.26,8.84-10.97,16.79-10.97,1.69,0,2.22-.83,2.2-1.81,0-2.37-4.02-8.17-15.16-8.17-8.39,0-17.23,3.6-24.38,14.64-1.17,1.82-4.91,7.67-9.65,15.09h24.69c2.8-4.45,4.8-7.63,5.51-8.78Z"/>
        <path class="cls-2" d="m234.4,57.62h25.04c2.18-2.47,4.11-3.34,7.12-3.34,2.08,0,2.55-1.17,2.55-2.23,0-3-4.84-7.56-13.66-7.56-6.63,0-14.36,2.57-21.05,13.13Z"/>
        <path class="cls-2" d="m382.07,70.4c-2.81,0-5.02,2.28-5.02,5.01v.03c0,2.73,2.19,4.98,5,4.98s5.03-2.28,5.03-5.01v-.03c0-2.73-2.19-4.98-5-4.98Zm4.47,5.01c0,2.48-1.94,4.51-4.5,4.51s-4.47-2.01-4.47-4.48v-.03c0-2.48,1.94-4.51,4.5-4.51s4.47,2.01,4.47,4.48v.03Z"/>
        <path class="cls-2" d="m384.39,74.33v-.02c0-.46-.15-.83-.43-1.09-.36-.36-.9-.57-1.59-.57h-2.34v5.25h1v-1.81h1.09l1.27,1.81h1.19l-1.41-1.98c.72-.21,1.22-.74,1.22-1.58Zm-2.06.87h-1.3v-1.66h1.3c.65,0,1.04.29,1.04.82v.03c0,.5-.39.82-1.04.82Z"/>
        <polygon class="cls-2" points="50.75 121.74 50.75 70.15 39.74 70.15 25.38 92.47 11.01 70.15 0 70.15 0 121.74 10.83 121.74 10.83 89.19 24.48 109.63 25.99 109.63 39.78 89.04 39.78 121.74 50.75 121.74"/>
        <rect class="cls-2" x="61.61" y="70.15" width="10.97" height="51.59"/>
        <path class="cls-2" d="m128.3,113.5l.78-.81-7.14-7.23-.82.77c-4.03,3.76-7.67,6.1-13.36,6.1-8.61,0-15.11-7.04-15.11-16.52s6.5-16.24,15.11-16.24c4.67,0,8.68,1.79,13.02,5.82l.87.81,7.06-8.14-.79-.76c-4.14-3.95-9.76-7.99-20.09-7.99-15.15,0-26.57,11.45-26.57,26.78s11.52,26.5,26.22,26.5c8.48,0,14.71-2.72,20.83-9.09Z"/>
        <path class="cls-2" d="m177.98,86.86c0-4.52-1.52-8.47-4.43-11.46-3.52-3.44-8.71-5.26-15.03-5.26h-23.12v51.6h10.96v-17.18h9.09l12.11,17.18h13.05l-13.69-19.2c7.15-2.58,11.06-8.05,11.06-15.68Zm-20.09,7.72h-11.52v-14.24h11.45c3.38,0,9.06.91,9.06,7.16,0,4.37-3.44,7.08-8.99,7.08Z"/>
        <path class="cls-2" d="m210.98,122.59c15.14,0,26.99-11.7,26.99-26.78s-11.54-26.5-26.85-26.5-26.99,11.7-26.99,26.78,11.54,26.5,26.85,26.5Zm0-43.02c8.89,0,15.61,7.04,15.61,16.52s-6.65,16.24-15.46,16.24-15.61-7.04-15.61-16.52,6.65-16.24,15.46-16.24Z"/>
        <polygon class="cls-2" points="266.62 121.74 266.62 80.48 282.26 80.48 282.26 70.15 239.96 70.15 239.96 80.48 255.59 80.48 255.59 121.74 266.62 121.74"/>
        <polygon class="cls-2" points="300.07 100.76 324.79 100.76 324.79 90.71 300.07 90.71 300.07 80.2 327.95 80.2 327.95 70.15 289.11 70.15 289.11 121.74 328.3 121.74 328.3 111.69 300.07 111.69 300.07 100.76"/>
        <polygon class="cls-2" points="347.25 70.15 336.28 70.15 336.28 121.74 373.16 121.74 373.16 111.55 347.25 111.55 347.25 70.15"/>
        <rect class="cls-2" x="115.79" y="138.97" width="3.28" height="14.9"/>
        <polygon class="cls-2" points="122.8 138.97 122.8 153.88 126.03 153.88 126.03 144.4 133.25 153.88 136.04 153.88 136.04 138.97 132.8 138.97 132.8 148.15 125.82 138.97 122.8 138.97"/>
        <polygon class="cls-2" points="150.07 153.88 152.86 153.88 152.86 138.97 149.62 138.97 149.62 148.15 142.64 138.97 139.62 138.97 139.62 153.88 142.85 153.88 142.85 144.4 150.07 153.88"/>
        <path class="cls-2" d="m161.75,149.74v.04c0,2.64,2.15,4.3,5,4.3,1.72,0,3.15-.66,4.36-1.66l1.72,1.75,2.4-1.68-2.19-2.19c.75-1,1.38-2.11,1.96-3.15l-2.4-1.32c-.47.92-.96,1.79-1.45,2.55l-1.98-1.98c1.85-.72,3.13-1.9,3.13-3.9v-.04c0-2.09-1.66-3.75-4.2-3.75-2.87,0-4.51,1.87-4.51,3.91v.04c0,1.02.32,1.96,1.04,2.98-1.87.85-2.89,2.19-2.89,4.09Zm4.86-6.96c0-.89.57-1.51,1.45-1.51s1.41.53,1.41,1.39v.04c0,.94-.68,1.49-1.98,1.98-.62-.7-.87-1.19-.87-1.85v-.04Zm-1.55,6.83c0-.72.4-1.45,1.38-1.96l2.85,2.89c-.68.53-1.4.85-2.15.85-1.21,0-2.08-.71-2.08-1.75v-.04Z"/>
        <path class="cls-2" d="m189.38,151.19c-1.7,0-3.11-.7-4.45-1.81l-1.93,2.32c1.79,1.6,4.06,2.38,6.32,2.38,3.22,0,5.47-1.66,5.47-4.62v-.04c0-2.6-1.7-3.68-4.73-4.47-2.58-.66-3.21-.98-3.21-1.96v-.04c0-.72.66-1.3,1.92-1.3s2.55.55,3.88,1.47l1.7-2.47c-1.51-1.21-3.36-1.89-5.53-1.89-3.05,0-5.22,1.79-5.22,4.49v.04c0,2.96,1.94,3.79,4.94,4.56,2.49.64,3,1.07,3,1.9v.04c0,.87-.81,1.4-2.15,1.4Z"/>
        <path class="cls-2" d="m207.12,147.51c0,2.36-1.21,3.58-3.22,3.58s-3.21-1.26-3.21-3.68v-8.43h-3.28v8.52c0,4.39,2.45,6.62,6.45,6.62s6.54-2.21,6.54-6.73v-8.41h-3.28v8.54Z"/>
        <rect class="cls-2" x="213.89" y="138.97" width="3.28" height="14.9"/>
        <polygon class="cls-2" points="227.64 153.87 227.64 142 232.17 142 232.17 138.97 219.83 138.97 219.83 142 224.36 142 224.36 153.87 227.64 153.87"/>
        <polygon class="cls-2" points="246.03 150.96 237.94 150.96 237.94 147.83 244.97 147.83 244.97 144.91 237.94 144.91 237.94 141.89 245.93 141.89 245.93 138.97 234.68 138.97 234.68 153.88 246.03 153.88 246.03 150.96"/>
        <path class="cls-2" d="m254.99,144.96c-2.58-.66-3.21-.98-3.21-1.96v-.04c0-.72.66-1.3,1.92-1.3s2.55.55,3.88,1.47l1.7-2.47c-1.51-1.21-3.36-1.89-5.53-1.89-3.04,0-5.21,1.79-5.21,4.49v.04c0,2.96,1.93,3.79,4.94,4.56,2.49.64,3,1.07,3,1.9v.04c0,.87-.81,1.4-2.15,1.4-1.7,0-3.11-.7-4.45-1.81l-1.94,2.32c1.79,1.6,4.07,2.38,6.32,2.38,3.21,0,5.47-1.66,5.47-4.62v-.04c0-2.6-1.7-3.68-4.73-4.47Z"/>
        <rect class="cls-2" x="45.18" y="145.04" width="58.66" height="1.18"/>
        <rect class="cls-2" x="269.32" y="145.04" width="58.66" height="1.18"/>
        <polygon class="cls-2" points="90.35 189.38 83.85 178.8 78.27 178.8 87.94 193.82 87.94 203.71 92.74 203.71 92.74 193.71 102.38 178.8 96.85 178.8 90.35 189.38"/>
        <path class="cls-2" d="m273.11,178.59l-11.06,25.1h5.05l2.5-5.89h11.2s2.46,5.89,2.46,5.89h5.21s-11.08-25.1-11.08-25.1h-4.28Zm-1.71,14.89l3.78-8.86,3.82,8.86h-7.6Z"/>
        <path class="cls-2" d="m219.96,178.79h-9.35v24.9h9.35c8.15,0,13.21-5.51,13.21-12.49,0-6.12-4.33-12.41-13.21-12.41Zm0,20.47h-4.54v-16.08h4.54c5,.01,8.22,3.39,8.22,8.1s-3.16,7.98-8.22,7.98Z"/>
        <polygon class="cls-2" points="167.94 188.64 161.92 178.8 156.26 178.8 165.49 193.42 165.49 203.7 170.3 203.7 170.3 193.3 179.54 178.79 174.02 178.8 167.94 188.64"/>
        <polygon class="cls-2" points="144.72 195.85 139.43 178.72 134.79 178.72 129.4 195.84 124.8 178.8 119.63 178.8 127.08 203.86 131.33 203.86 136.96 186.08 142.67 203.86 147.04 203.86 154.39 178.8 149.34 178.8 144.72 195.85"/>
        <polygon class="cls-2" points="199.4 195.16 186.7 178.79 182.36 178.79 182.36 203.69 187.09 203.69 187.09 186.81 200.15 203.69 204.14 203.69 204.14 178.79 199.4 178.79 199.4 195.16"/>
        <polygon class="cls-2" points="253.85 178.77 253.85 188.91 242.72 188.91 242.72 178.79 237.91 178.77 237.92 203.69 242.73 203.69 242.72 193.4 253.85 193.4 253.85 203.69 258.64 203.69 258.63 178.77 253.85 178.77"/>
        <polygon class="cls-2" points="310.88 178.77 303.61 190.1 296.32 178.77 291.37 178.77 291.38 203.69 296.1 203.69 296.09 186.83 303.34 197.69 303.75 197.69 311.07 186.77 311.07 203.69 315.86 203.69 315.85 178.77 310.88 178.77"/>
        <path class="cls-2" d="m73.03,190.72c1.84-.95,3.54-2.61,3.54-5.59,0-3.38-2.52-6.33-8.16-6.33h-11.11v24.92h11.48c5.53,0,9.16-2.53,9.16-6.96,0-3.36-2.01-5.07-4.91-6.04Zm-10.92-7.65h5.38c2.91,0,4.11,1.39,4.11,2.98,0,1.73-1.34,2.99-4.11,2.99h-5.38v-5.97Zm6.33,16.32h-6.33v-6.04h6.33c3.41,0,4.53,1.31,4.53,3.03,0,1.81-1.26,3.02-4.53,3.02Z"/>
      </g>
    </g>
  </g>
</svg>